<svg width="98" height="97" viewBox="0 0 98 97" fill="none" xmlns="http://www.w3.org/2000/svg">
<circle cx="48.9347" cy="48.0968" r="48.0968" fill="#FAF8F4"/>
<path d="M71.2345 33.3661L52.182 22.8873C51.9007 22.7325 51.5848 22.6514 51.2637 22.6514C50.9426 22.6514 50.6267 22.7325 50.3454 22.8873L31.293 33.3661C30.9942 33.5306 30.7451 33.7722 30.5717 34.0658C30.3982 34.3594 30.3066 34.6941 30.3066 35.0351C30.3066 35.3761 30.3982 35.7109 30.5717 36.0044C30.7451 36.298 30.9942 36.5396 31.293 36.7041L49.3585 46.6399V67.0622L43.5742 63.8805L41.7375 67.2166L50.3454 71.9511C50.6266 72.1062 50.9425 72.1875 51.2637 72.1875C51.5849 72.1875 51.9008 72.1062 52.182 71.9511L71.2345 61.4722C71.5333 61.3079 71.7825 61.0663 71.9561 60.7727C72.1297 60.4791 72.2213 60.1443 72.2214 59.8033V35.0351C72.2213 34.6941 72.1297 34.3593 71.9561 34.0657C71.7825 33.7721 71.5333 33.5305 71.2345 33.3661ZM51.2637 26.7321L66.3627 35.0351L51.2637 43.3382L36.1647 35.0351L51.2637 26.7321ZM68.4109 58.6773L53.1689 67.0603V46.638L68.4109 38.255V58.6773Z" fill="#F5B325"/>
<path d="M34.1162 47.4194H18.8743V43.6089H34.1162V47.4194Z" fill="#F5B325"/>
<path d="M37.9265 62.6616H22.6846V58.8511H37.9265V62.6616Z" fill="#F5B325"/>
<path d="M41.7371 55.0405H26.4951V51.23H41.7371V55.0405Z" fill="#F5B325"/>
</svg>
