<svg width="97" height="97" viewBox="0 0 97 97" fill="none" xmlns="http://www.w3.org/2000/svg">
<circle cx="48.839" cy="48.0968" r="48.0968" fill="#FAF8F4"/>
<path d="M72.5486 45.4381L60.8631 36.0389V29.6373C60.9253 28.3543 60.4762 27.0989 59.6143 26.1465C58.7524 25.1941 57.548 24.6224 56.2651 24.5566H27.3055C26.0317 24.6353 24.8401 25.2126 23.989 26.1636C23.1379 27.1146 22.6957 28.3626 22.7583 29.6373V55.0405C22.7347 56.0493 23.012 57.0422 23.5549 57.8928C24.0979 58.7433 24.8817 59.413 25.8067 59.8163C25.3388 60.9608 25.1565 62.202 25.2754 63.4328C25.3943 64.6635 25.8109 65.8468 26.4892 66.8806C27.1675 67.9144 28.0871 68.7676 29.1688 69.3667C30.2504 69.9657 31.4616 70.2926 32.6978 70.3191C33.934 70.3456 35.158 70.0709 36.2643 69.5187C37.3707 68.9666 38.326 68.1535 39.048 67.1497C39.7699 66.1459 40.2368 64.9815 40.4083 63.757C40.5799 62.5325 40.4509 61.2847 40.0325 60.1212H56.1889C55.7711 61.2723 55.6369 62.5071 55.7975 63.7211C55.9582 64.9351 56.409 66.0925 57.1119 67.0952C57.8147 68.098 58.7488 68.9167 59.8352 69.4819C60.9215 70.0471 62.1281 70.3422 63.3526 70.3422C64.5772 70.3422 65.7838 70.0471 66.8701 69.4819C67.9564 68.9167 68.8906 68.098 69.5934 67.0952C70.2962 66.0925 70.7471 64.9351 70.9077 63.7211C71.0684 62.5071 70.9341 61.2723 70.5163 60.1212H71.0244C71.6981 60.1212 72.3443 59.8535 72.8207 59.3771C73.2971 58.9007 73.5647 58.2546 73.5647 57.5808V47.4195C73.557 47.0338 73.4614 46.6549 73.2854 46.3115C73.1093 45.9682 72.8573 45.6695 72.5486 45.4381ZM68.4841 48.6389V55.0405H60.8631V42.5421L68.4841 48.6389ZM35.4599 62.6615C35.4599 63.1639 35.3109 63.6551 35.0318 64.0728C34.7526 64.4906 34.3559 64.8162 33.8917 65.0084C33.4275 65.2007 32.9168 65.251 32.424 65.153C31.9312 65.055 31.4786 64.813 31.1233 64.4578C30.768 64.1025 30.5261 63.6498 30.4281 63.1571C30.33 62.6643 30.3803 62.1535 30.5726 61.6893C30.7649 61.2252 31.0905 60.8284 31.5082 60.5493C31.926 60.2701 32.4171 60.1212 32.9196 60.1212C33.5933 60.1212 34.2394 60.3888 34.7158 60.8652C35.1923 61.3416 35.4599 61.9877 35.4599 62.6615ZM48.1615 55.0405H27.8389V29.6373H55.7825V55.0405H48.1615ZM65.9438 62.6615C65.9438 63.1639 65.7948 63.6551 65.5156 64.0728C65.2365 64.4906 64.8398 64.8162 64.3756 65.0084C63.9114 65.2007 63.4006 65.251 62.9078 65.153C62.4151 65.055 61.9624 64.813 61.6072 64.4578C61.2519 64.1025 61.01 63.6498 60.9119 63.1571C60.8139 62.6643 60.8642 62.1535 61.0565 61.6893C61.2488 61.2252 61.5744 60.8284 61.9921 60.5493C62.4099 60.2701 62.901 60.1212 63.4034 60.1212C64.0772 60.1212 64.7233 60.3888 65.1997 60.8652C65.6761 61.3416 65.9438 61.9877 65.9438 62.6615Z" fill="#F5B325"/>
</svg>
