<svg width="29" height="29" viewBox="0 0 29 29" fill="none" xmlns="http://www.w3.org/2000/svg">
<path d="M24.6211 10.2354C24.6093 9.34873 24.4433 8.47086 24.1305 7.64108C23.8593 6.94116 23.4451 6.3055 22.9144 5.77473C22.3836 5.24396 21.7479 4.82974 21.048 4.55854C20.2289 4.25105 19.3635 4.08479 18.4888 4.06683C17.3625 4.01649 17.0055 4.00244 14.1465 4.00244C11.2876 4.00244 10.9212 4.00244 9.80313 4.06683C8.92878 4.08492 8.06383 4.25118 7.24508 4.55854C6.54505 4.82955 5.9093 5.2437 5.3785 5.7745C4.84771 6.3053 4.43355 6.94105 4.16254 7.64108C3.85444 8.45957 3.68854 9.32472 3.67201 10.1991C3.62166 11.3265 3.60645 11.6836 3.60645 14.5425C3.60645 17.4015 3.60645 17.7667 3.67201 18.886C3.68957 19.7617 3.85464 20.6257 4.16254 21.4463C4.43401 22.1462 4.84847 22.7817 5.37944 23.3122C5.91042 23.8428 6.54623 24.2568 7.24625 24.5277C8.06276 24.8476 8.92786 25.0257 9.8043 25.0545C10.9317 25.1049 11.2888 25.1201 14.1477 25.1201C17.0066 25.1201 17.3731 25.1201 18.4911 25.0545C19.3658 25.0373 20.2313 24.8714 21.0504 24.564C21.7501 24.2925 22.3856 23.8782 22.9163 23.3474C23.447 22.8167 23.8614 22.1812 24.1329 21.4815C24.4408 20.662 24.6059 19.798 24.6234 18.9211C24.6738 17.7948 24.689 17.4378 24.689 14.5777C24.6866 11.7187 24.6866 11.3558 24.6211 10.2354ZM14.1395 19.949C11.1495 19.949 8.72723 17.5267 8.72723 14.5367C8.72723 11.5466 11.1495 9.12439 14.1395 9.12439C15.575 9.12439 16.9516 9.69461 17.9666 10.7096C18.9816 11.7246 19.5518 13.1013 19.5518 14.5367C19.5518 15.9721 18.9816 17.3488 17.9666 18.3638C16.9516 19.3788 15.575 19.949 14.1395 19.949ZM19.7672 10.1862C19.0683 10.1862 18.5052 9.62195 18.5052 8.9242C18.5052 8.75854 18.5378 8.5945 18.6012 8.44146C18.6646 8.28841 18.7575 8.14935 18.8747 8.03221C18.9918 7.91507 19.1309 7.82215 19.2839 7.75876C19.437 7.69536 19.601 7.66273 19.7666 7.66273C19.9323 7.66273 20.0963 7.69536 20.2494 7.75876C20.4024 7.82215 20.5415 7.91507 20.6586 8.03221C20.7758 8.14935 20.8687 8.28841 20.9321 8.44146C20.9955 8.5945 21.0281 8.75854 21.0281 8.9242C21.0281 9.62195 20.4638 10.1862 19.7672 10.1862Z" fill="black"/>
<path d="M14.1395 18.0529C16.0812 18.0529 17.6552 16.4789 17.6552 14.5372C17.6552 12.5955 16.0812 11.0215 14.1395 11.0215C12.1978 11.0215 10.6238 12.5955 10.6238 14.5372C10.6238 16.4789 12.1978 18.0529 14.1395 18.0529Z" fill="black"/>
</svg>

